<?xml version="1.0" standalone="no"?>
<!DOCTYPE svg PUBLIC "-//W3C//DTD SVG 20010904//EN"
 "http://www.w3.org/TR/2001/REC-SVG-20010904/DTD/svg10.dtd">
<svg version="1.0" xmlns="http://www.w3.org/2000/svg"
 width="1024.000000pt" height="1024.000000pt" viewBox="0 0 1024.000000 1024.000000"
 preserveAspectRatio="xMidYMid meet">

<g transform="translate(0.000000,1024.000000) scale(0.100000,-0.100000)"
fill="#000000" stroke="none">
<path d="M4955 8403 c-439 -36 -797 -196 -1090 -488 -184 -182 -301 -358 -395
-591 l-45 -112 -91 -61 c-98 -65 -181 -148 -217 -215 -16 -31 -21 -58 -21
-111 0 -80 27 -145 91 -215 42 -47 145 -117 227 -154 l59 -26 -7 -38 c-3 -20
-6 -47 -6 -59 0 -18 -10 -25 -57 -38 -109 -32 -187 -109 -240 -237 -21 -51
-27 -84 -31 -173 -2 -60 1 -137 7 -170 28 -150 126 -314 231 -388 30 -21 87
-48 126 -59 l71 -21 42 -99 c49 -112 143 -273 216 -368 101 -133 273 -283 440
-385 l68 -41 -2 -80 c-1 -43 -6 -82 -10 -87 -12 -12 -258 118 -361 190 -115
82 -297 257 -390 373 -83 104 -216 308 -298 455 -116 209 -602 1224 -602 1257
0 6 16 50 35 98 101 252 175 601 175 823 0 139 -53 246 -150 305 -48 28 -62
32 -127 32 -113 0 -170 -37 -232 -150 -25 -44 -31 -50 -31 -30 0 58 -71 385
-93 434 -35 77 -89 131 -165 167 -58 28 -72 31 -132 27 -100 -7 -181 -57 -240
-146 l-15 -23 -55 25 c-165 77 -350 -37 -367 -225 l-6 -56 -68 -5 c-150 -11
-248 -127 -237 -279 4 -52 21 -92 141 -332 75 -149 150 -306 168 -347 53 -127
153 -322 199 -390 24 -36 74 -95 112 -132 40 -39 68 -75 68 -87 0 -39 78 -328
135 -496 133 -397 317 -806 496 -1103 38 -64 69 -119 69 -124 0 -5 -30 -50
-66 -101 -144 -199 -146 -229 -21 -415 206 -304 496 -621 754 -821 l73 -56 0
-73 c0 -40 -7 -213 -16 -385 -9 -172 -17 -371 -18 -444 -1 -126 0 -132 23
-157 29 -31 174 -88 394 -156 528 -161 962 -227 1557 -237 451 -8 760 15 1127
82 400 74 941 240 1013 311 24 24 25 27 22 157 -1 73 -11 290 -22 484 -11 194
-20 365 -20 382 0 26 15 42 118 127 149 123 412 389 522 528 140 176 259 348
275 398 13 37 14 55 6 86 -12 42 -69 136 -137 223 -43 54 -53 82 -35 93 10 7
135 225 203 356 114 218 265 582 357 857 64 190 131 435 131 475 0 16 23 46
71 93 119 118 195 247 324 548 37 87 119 259 181 383 109 215 114 228 114 287
0 80 -32 149 -93 203 -51 45 -102 64 -171 64 -46 0 -46 0 -46 35 0 52 -38 143
-79 188 -76 85 -189 109 -290 62 l-53 -25 -21 27 c-74 97 -150 137 -257 137
-63 0 -83 -4 -125 -27 -84 -45 -133 -100 -165 -186 -16 -42 -58 -238 -79 -376
l-7 -40 -18 35 c-50 97 -137 153 -236 153 -114 0 -217 -73 -255 -182 -60 -169
7 -621 144 -961 23 -56 41 -108 41 -115 0 -7 -23 -62 -51 -121 -28 -60 -94
-203 -146 -319 -108 -236 -361 -747 -431 -870 -247 -435 -540 -735 -892 -914
-65 -34 -125 -61 -133 -61 -15 0 -27 58 -27 135 0 41 1 42 73 85 306 182 544
461 671 789 l21 53 81 27 c170 55 295 202 350 411 27 100 24 267 -5 358 -30
92 -83 168 -149 212 -41 28 -51 39 -46 55 13 47 16 457 4 565 -56 513 -325
958 -750 1245 -324 218 -758 324 -1185 288z m323 -253 c329 -29 601 -139 851
-344 267 -219 480 -613 516 -956 l7 -65 -103 104 c-449 448 -963 664 -1644
688 -351 12 -782 -50 -1038 -151 -48 -19 -87 -31 -87 -26 0 17 101 160 173
247 314 374 780 551 1325 503z m-3260 -255 c10 -13 37 -104 61 -211 24 -104
63 -258 87 -343 24 -84 44 -156 44 -160 0 -4 -16 -15 -35 -25 -85 -46 -187
-187 -202 -280 -19 -116 54 -214 142 -192 31 8 64 43 71 76 26 134 70 195 164
230 33 12 64 28 70 34 5 7 26 73 46 147 77 287 88 312 132 307 46 -5 56 -43
42 -161 -32 -271 -104 -542 -197 -738 l-47 -101 21 -57 c12 -31 92 -207 178
-391 86 -184 170 -364 187 -400 16 -36 86 -176 154 -313 68 -136 124 -249 124
-251 0 -2 -26 -20 -57 -41 -138 -90 -347 -259 -437 -354 l-40 -41 -49 88
c-257 457 -484 1032 -598 1512 -22 94 -23 96 -91 163 -88 88 -154 187 -227
340 -180 375 -217 450 -281 568 -39 71 -73 143 -77 160 -7 36 18 69 53 69 32
0 63 -42 136 -181 34 -67 79 -139 99 -161 32 -34 41 -38 83 -38 39 0 53 5 77
29 41 42 38 81 -15 204 -65 148 -136 342 -136 370 0 40 48 71 87 56 28 -10 53
-60 102 -201 65 -190 100 -274 124 -296 48 -45 128 -37 163 16 21 33 16 74
-35 283 -64 263 -64 280 -9 303 38 16 63 11 86 -19z m6285 24 c26 -12 47 -47
47 -78 0 -10 -22 -109 -50 -220 -64 -260 -64 -293 0 -326 39 -20 69 -19 107 5
37 22 43 36 120 255 68 196 85 231 121 249 23 12 33 12 53 2 21 -10 24 -19 24
-63 -1 -27 -8 -68 -17 -89 -89 -214 -151 -374 -155 -399 -9 -68 60 -121 135
-104 49 11 77 42 139 154 95 170 123 214 143 220 30 9 56 -2 69 -31 11 -24 2
-44 -106 -247 -64 -121 -152 -300 -195 -396 -114 -255 -188 -371 -302 -473
-49 -43 -56 -55 -66 -106 -36 -179 -127 -486 -212 -712 -92 -244 -166 -403
-345 -748 l-96 -182 -81 78 c-101 97 -243 210 -363 291 -51 34 -93 64 -93 68
0 3 24 51 54 107 57 107 281 575 391 816 24 52 82 176 129 275 47 99 86 187
86 196 0 9 -20 59 -44 110 -80 172 -139 371 -176 599 -23 141 -26 280 -8 298
19 19 56 14 73 -10 16 -24 53 -138 101 -313 15 -55 35 -109 45 -120 10 -12 41
-29 67 -38 80 -29 131 -96 153 -199 20 -93 85 -131 158 -93 34 17 61 78 61
135 0 53 -32 135 -78 200 -34 50 -123 132 -153 142 -9 3 -2 40 29 149 23 79
62 236 87 349 41 188 47 207 75 233 34 30 39 32 73 16z m-3103 -1019 c327 -24
599 -77 920 -182 176 -57 173 -55 203 -137 42 -112 77 -257 88 -366 17 -154
20 -167 58 -192 46 -31 67 -29 137 14 103 64 173 47 224 -53 22 -44 25 -61 25
-164 -1 -133 -16 -179 -85 -254 -54 -58 -111 -81 -186 -73 -89 9 -97 3 -134
-110 -83 -251 -224 -464 -431 -648 -151 -135 -355 -238 -574 -290 -472 -113
-967 19 -1303 347 -169 164 -281 342 -357 563 -21 61 -43 116 -50 123 -6 7
-43 13 -92 15 -70 2 -88 7 -129 33 -86 53 -132 143 -141 280 -10 146 42 253
132 270 33 6 49 1 121 -36 91 -47 117 -48 158 -6 19 19 24 37 30 117 14 184
71 464 115 565 l19 41 117 32 c362 101 747 138 1135 111z m-1931 -2159 c266
-379 634 -675 990 -795 71 -23 75 -27 86 -63 34 -115 152 -275 263 -357 180
-132 458 -195 671 -152 285 58 517 245 604 486 l22 62 92 34 c111 40 282 126
378 190 146 97 354 284 472 424 37 44 191 248 202 269 8 13 17 10 63 -20 81
-55 254 -191 342 -271 101 -92 263 -272 322 -359 l46 -67 -63 -89 c-217 -302
-452 -550 -737 -776 -73 -59 -115 -98 -119 -115 -3 -14 2 -197 13 -406 10
-210 19 -428 19 -485 l0 -104 -40 -14 c-340 -120 -838 -226 -1260 -270 -214
-22 -786 -25 -975 -5 -479 51 -872 132 -1293 269 l-78 25 5 52 c10 89 41 653
49 877 2 81 6 76 -158 207 -238 191 -529 502 -697 745 -70 103 -71 92 20 212
136 180 346 378 576 541 80 58 103 70 111 59 6 -7 39 -54 74 -104z m1406 -521
c277 -76 568 -77 849 -5 72 18 133 31 136 28 3 -2 5 -57 5 -121 0 -132 -15
-192 -70 -278 -114 -178 -389 -272 -630 -215 -256 61 -404 244 -405 497 0 89
9 127 29 119 9 -4 48 -15 86 -25z"/>
<path d="M4425 6446 c-103 -46 -160 -222 -121 -375 29 -113 80 -169 160 -178
82 -10 153 49 191 156 19 55 20 183 1 245 -39 129 -138 194 -231 152z"/>
<path d="M5637 6439 c-43 -22 -92 -92 -108 -153 -6 -22 -9 -83 -7 -135 3 -104
22 -157 76 -214 52 -55 143 -60 202 -11 147 124 124 451 -37 520 -44 19 -81
17 -126 -7z"/>
<path d="M4405 5527 c-52 -44 -42 -155 27 -291 122 -241 363 -398 633 -413
291 -16 565 146 696 412 53 108 74 194 59 240 -14 43 -53 75 -91 75 -15 0 -79
-13 -141 -29 -314 -81 -683 -79 -1004 4 -119 31 -146 31 -179 2z"/>
</g>
</svg>
